<?xml version="1.0" standalone="no"?>
<!DOCTYPE svg PUBLIC "-//W3C//DTD SVG 20010904//EN"
 "http://www.w3.org/TR/2001/REC-SVG-20010904/DTD/svg10.dtd">
<svg version="1.0" xmlns="http://www.w3.org/2000/svg"
 width="2084.000000pt" height="656.000000pt" viewBox="0 0 2084.000000 656.000000"
 preserveAspectRatio="xMidYMid meet">
<g transform="translate(0.000000,656.000000) scale(0.100000,-0.100000)"
fill="#8b1f2e" stroke="none">
<path d="M4570 6537 c0 -33 18 -47 61 -47 38 0 49 12 49 51 0 16 -7 19 -55 19
-51 0 -55 -2 -55 -23z"/>
<path d="M5660 6535 c0 -20 8 -29 32 -40 43 -17 68 -4 68 35 0 29 -1 30 -50
30 -47 0 -50 -2 -50 -25z"/>
<path d="M20780 6052 c0 -529 0 -532 42 -532 17 0 18 26 18 520 l0 520 -30 0
-30 0 0 -508z"/>
<path d="M4124 6442 c-129 -126 -309 -319 -374 -400 -36 -44 -77 -86 -92 -92
-38 -17 -41 -37 -42 -310 l-1 -245 -24 -3 c-17 -3 -31 5 -46 24 -14 18 -27 25
-38 21 -29 -11 -19 -44 33 -106 28 -33 50 -62 50 -65 0 -3 15 -27 32 -53 36
-53 58 -91 82 -140 19 -42 33 -42 44 -1 9 37 29 48 38 21 12 -34 47 -63 75
-63 39 0 43 -24 8 -49 -39 -29 -82 -18 -87 22 -2 19 -9 27 -23 27 -25 0 -24
-21 2 -54 29 -37 20 -52 -78 -129 -104 -81 -136 -87 -141 -24 -2 23 -8 37 -17
37 -10 0 -14 -23 -17 -89 -2 -75 -6 -93 -25 -113 -12 -13 -33 -45 -48 -73 -14
-27 -30 -57 -35 -65 -16 -28 -49 -105 -56 -133 -9 -38 -27 -29 -35 19 -23 142
-22 163 10 192 51 44 35 121 -22 107 -35 -9 -43 -40 -29 -109 7 -36 7 -66 0
-97 -14 -62 -5 -255 14 -299 40 -90 87 -231 100 -300 6 -30 19 -63 29 -73 11
-10 19 -22 19 -27 0 -5 8 -11 18 -14 9 -3 26 -22 36 -41 l19 -35 109 0 c95 0
113 -3 135 -20 20 -15 41 -20 93 -20 62 0 68 -2 79 -26 8 -19 17 -25 31 -21
28 7 35 -11 14 -34 -14 -16 -15 -23 -6 -45 7 -13 12 -34 12 -45 0 -12 8 -23
19 -26 10 -2 24 -16 30 -29 6 -13 17 -24 24 -24 12 0 57 -75 57 -94 0 -3 20
-31 45 -62 25 -30 45 -60 45 -67 0 -7 18 -32 41 -56 34 -36 40 -48 36 -75 -2
-17 2 -47 10 -67 15 -39 4 -89 -19 -89 -33 1 -117 137 -118 192 0 15 -4 29 -9
32 -5 3 -12 17 -15 31 -4 14 -27 44 -53 67 -26 24 -54 50 -63 58 -39 37 -117
97 -133 103 -25 9 6 65 41 74 37 9 -30 62 -78 63 -20 0 -46 7 -58 16 -12 8
-26 13 -31 10 -4 -3 -22 0 -39 6 -25 10 -34 9 -56 -5 -40 -27 -77 -21 -140 23
-53 38 -61 40 -129 40 -131 0 -126 28 7 45 86 11 119 35 47 35 -22 0 -43 5
-46 10 -3 6 -36 10 -72 10 -137 0 -296 119 -342 255 -34 100 -40 214 -14 258
11 18 23 49 27 68 4 25 19 46 46 69 45 38 49 56 20 93 -16 20 -20 40 -20 96 0
46 -7 92 -20 128 -11 32 -20 71 -20 88 0 17 -9 47 -20 68 -11 20 -20 42 -20
47 0 6 -15 35 -32 66 -18 30 -38 64 -44 76 -36 62 -119 102 -164 78 -24 -13
-67 -6 -90 15 -17 15 -130 55 -155 55 -33 0 -121 -35 -163 -64 -46 -32 -106
-70 -132 -82 -36 -18 -73 -51 -83 -74 -16 -38 -14 -45 13 -45 21 0 24 -4 20
-25 -25 -130 20 -236 119 -287 59 -29 78 -29 141 4 48 25 51 28 48 62 -3 34
-48 64 -48 32 0 -17 -40 -33 -69 -26 -20 4 -33 18 -49 51 -55 113 11 214 176
270 l83 28 69 -24 c66 -23 70 -26 97 -79 28 -56 28 -58 28 -242 0 -201 -7
-229 -46 -208 -31 16 -59 0 -81 -44 -11 -23 -29 -58 -41 -79 -63 -105 -78
-134 -84 -157 -3 -14 -11 -33 -18 -41 -7 -8 -19 -35 -25 -60 -11 -41 -13 -43
-26 -25 -8 10 -14 33 -14 51 0 35 -17 55 -30 34 -13 -21 -10 -260 5 -345 29
-170 18 -201 -49 -136 -48 47 -80 46 -84 -3 -6 -70 58 -134 159 -159 38 -10
152 -128 137 -142 -12 -12 -80 -55 -87 -55 -10 0 -158 -148 -187 -187 -11 -15
-42 -71 -68 -123 -26 -52 -61 -117 -77 -144 -17 -27 -33 -63 -36 -80 -3 -17
-12 -43 -19 -57 -26 -51 -29 -219 -6 -295 11 -38 24 -94 28 -124 5 -42 16 -65
42 -97 38 -48 31 -83 -20 -99 -22 -6 -102 -67 -141 -106 -10 -10 -22 -18 -27
-18 -6 0 -10 -7 -10 -15 0 -8 -9 -19 -20 -25 -26 -14 -26 -30 0 -37 31 -8 28
-68 -5 -89 -25 -16 -27 -16 -53 8 -21 20 -45 28 -112 38 -47 6 -89 15 -95 19
-5 4 -29 13 -52 20 -66 18 -103 88 -103 193 0 44 30 117 52 126 5 2 16 11 25
20 22 22 101 52 137 52 114 0 153 -166 44 -185 -34 -6 -41 -4 -65 23 -21 25
-30 29 -45 21 -29 -15 -21 -48 19 -86 l38 -34 80 7 c84 7 113 19 158 67 36 40
40 171 7 236 -30 56 -105 121 -140 121 -19 0 -33 7 -40 20 -12 22 -142 31
-155 11 -3 -6 -25 -13 -50 -16 -24 -4 -52 -16 -61 -26 -9 -10 -22 -19 -29 -19
-13 0 -105 -86 -105 -98 0 -5 -9 -17 -20 -27 -11 -10 -20 -28 -20 -41 0 -13
-9 -28 -20 -34 -13 -7 -20 -21 -20 -42 0 -17 -8 -40 -17 -50 -11 -13 -16 -36
-16 -78 0 -42 5 -65 16 -78 10 -11 17 -35 17 -59 0 -27 6 -46 20 -58 11 -10
20 -28 20 -41 0 -12 6 -29 14 -36 7 -8 21 -27 29 -43 19 -35 52 -75 62 -75 3
0 28 -18 55 -41 26 -22 75 -53 108 -69 l60 -28 -6 -176 c-4 -155 -3 -178 12
-201 10 -15 20 -52 23 -83 4 -31 20 -86 36 -122 32 -70 32 -76 -5 -243 -22
-103 9 -376 47 -407 8 -7 15 -16 15 -21 0 -31 110 -138 143 -139 5 0 15 -7 23
-15 8 -8 31 -17 52 -21 20 -4 44 -12 52 -19 64 -52 339 -75 431 -36 26 12 55
21 63 21 37 0 114 70 152 139 50 89 58 102 98 148 15 18 36 33 46 33 10 0 20
9 23 20 3 12 14 20 27 20 13 0 34 12 47 26 19 21 30 25 55 20 17 -3 46 -6 64
-6 26 0 37 -6 45 -23 5 -12 16 -33 24 -47 18 -30 20 -111 3 -128 -17 -17 -25
-15 -32 11 -3 12 -21 39 -40 59 -48 52 -160 56 -208 8 -43 -43 -46 -216 -5
-257 53 -53 197 -80 269 -49 52 22 81 36 106 50 33 19 82 68 82 82 0 6 7 17
15 24 7 6 17 32 21 56 3 24 10 47 15 50 5 3 9 18 9 34 0 33 31 60 70 60 69 1
153 42 267 130 39 30 99 75 132 100 34 24 61 47 61 51 0 14 50 61 130 122 47
36 93 73 103 81 40 37 82 10 92 -58 9 -56 1 -80 -30 -94 -34 -16 -31 -32 5
-32 19 0 30 5 30 14 0 9 17 15 47 19 33 3 52 11 62 26 16 25 78 30 87 6 3 -8
16 -17 27 -21 12 -4 33 -15 46 -25 13 -11 31 -19 39 -19 32 0 82 -69 82 -113
0 -26 6 -44 17 -53 10 -7 14 -16 9 -21 -5 -4 -11 -2 -13 5 -3 7 -16 17 -29 22
-14 6 -27 18 -31 27 -10 26 -23 33 -67 33 -44 0 -42 12 1 14 19 1 29 7 31 20
6 27 -15 36 -88 35 -115 -2 -148 -24 -71 -48 l44 -14 -29 -21 c-16 -11 -40
-31 -53 -44 -13 -13 -24 -22 -25 -20 -25 48 -44 101 -40 111 7 20 -24 41 -65
43 -20 1 -48 5 -62 9 -36 9 -135 -87 -175 -171 -40 -82 -43 -243 -5 -314 49
-93 129 -170 175 -170 12 0 34 -7 50 -15 45 -24 579 -22 627 2 76 37 209 157
209 188 0 7 6 18 14 24 7 6 16 26 20 43 15 78 52 84 162 28 86 -44 130 -47
184 -12 14 10 41 17 60 17 34 0 35 1 38 44 5 69 -78 146 -169 156 -35 4 -79
14 -98 21 -20 9 -48 12 -68 8 -41 -8 -44 9 -11 58 27 41 89 72 126 65 109 -23
169 -40 183 -53 8 -7 20 -14 26 -14 5 0 18 -10 29 -21 29 -33 121 -99 138 -99
11 0 13 -12 9 -61 -8 -84 12 -121 85 -156 29 -14 63 -25 75 -24 155 6 148 4
233 75 56 46 47 72 -63 191 -10 11 -22 27 -28 36 -5 9 -23 36 -39 60 -39 58
-66 157 -66 244 0 38 -5 99 -10 135 -13 85 5 356 28 430 18 58 24 241 9 256
-13 13 -26 -16 -33 -72 -7 -58 -42 -129 -64 -129 -11 0 -16 16 -20 60 -3 34
-13 71 -22 85 -10 13 -18 39 -18 57 0 35 -14 49 -47 45 -11 -2 -24 2 -28 7
-10 17 -21 13 -33 -14 -15 -33 -30 -32 -42 3 -6 15 -15 35 -21 46 -9 15 -5 24
17 47 28 30 28 25 8 139 -8 45 -21 60 -50 60 -45 0 -56 77 -16 119 84 91 107
140 105 225 -1 85 -9 102 -42 91 -29 -9 -91 -92 -91 -121 0 -31 -27 -32 -32
-1 -5 32 11 99 28 118 15 17 18 38 8 63 -15 39 -54 4 -99 -87 -25 -49 -33 -58
-54 -56 -64 4 -71 0 -71 -31 0 -19 7 -34 20 -42 21 -14 25 -42 11 -80 -10 -26
-115 -112 -156 -128 -28 -11 -20 -40 11 -40 21 0 25 -16 12 -45 -9 -19 -9 -28
0 -37 13 -13 16 -66 6 -92 -9 -24 -60 -19 -113 10 -62 35 -114 29 -130 -16 -5
-17 -15 -30 -20 -30 -6 0 -11 -11 -11 -24 0 -24 -74 -96 -143 -141 -39 -25
-46 -11 -42 89 3 73 5 82 29 99 14 10 26 28 26 39 0 26 65 88 91 88 23 0 25
15 3 24 -31 12 -123 6 -131 -8 -10 -16 -96 -60 -138 -70 -34 -9 -135 -91 -135
-111 0 -8 -9 -16 -19 -20 -11 -3 -22 -12 -25 -20 -9 -23 -44 -17 -62 10 -9 14
-21 25 -27 25 -6 0 -20 9 -31 19 -12 11 -37 23 -56 28 -32 8 -36 13 -41 54 -4
24 -10 54 -14 67 -8 25 9 31 19 6 5 -13 15 -15 40 -11 41 7 56 -7 56 -48 0
-21 9 -40 25 -55 29 -27 34 -24 56 33 13 34 26 47 63 64 78 38 57 128 -28 117
-57 -8 -86 8 -86 46 0 39 32 66 85 72 30 4 57 16 88 42 46 38 57 43 57 26 0
-5 -7 -10 -16 -10 -11 0 -14 -8 -12 -33 4 -42 61 -54 72 -15 6 21 104 108 122
108 4 0 30 21 58 48 28 26 69 61 91 78 37 30 39 33 29 65 -13 42 -8 59 16 59
22 0 32 -23 24 -55 -4 -18 -1 -24 20 -29 31 -8 34 -31 5 -47 -14 -7 -19 -17
-16 -29 3 -11 -1 -38 -9 -60 -11 -30 -12 -51 -5 -76 l9 -34 -36 0 c-39 0 -49
-5 -70 -32 -11 -13 -11 -20 0 -37 10 -17 10 -25 0 -41 -17 -27 -16 -30 12 -30
14 0 28 -5 31 -10 10 -17 25 -11 36 14 6 13 28 33 49 45 27 15 39 30 44 53 7
37 45 95 93 143 21 21 33 43 33 61 0 15 7 35 16 45 36 40 11 59 -81 59 -94 0
-86 -7 -100 82 -4 26 -2 39 9 45 66 38 187 250 165 290 -16 30 -5 40 27 23 53
-29 89 23 57 80 -29 49 -30 47 14 67 28 14 39 27 46 53 5 19 13 37 17 40 20
12 100 144 100 164 0 45 166 192 280 248 59 29 160 119 160 142 0 13 10 30 23
39 18 12 20 17 9 29 -11 11 -15 10 -26 -4 -18 -25 -66 -24 -66 1 0 10 -13 32
-30 49 -16 18 -30 42 -30 55 0 13 -5 28 -10 33 -6 6 -12 48 -13 93 -1 53 -6
86 -14 93 -19 15 -43 -8 -43 -41 0 -35 -51 -86 -76 -77 -25 10 -64 -20 -64
-49 0 -14 -5 -25 -11 -25 -5 0 -7 -4 -4 -10 3 -5 -4 -24 -17 -41 -18 -25 -24
-47 -27 -112 -3 -70 -7 -86 -27 -105 -30 -31 -40 -23 -54 43 -11 55 -10 66 25
190 8 28 16 61 17 74 2 17 16 31 46 47 23 12 57 34 74 49 29 25 39 39 84 123
17 30 44 44 44 22 0 -5 5 -10 10 -10 6 0 10 18 10 39 0 26 5 41 16 45 27 10
34 -3 34 -67 0 -71 1 -73 56 -109 84 -54 126 -38 150 57 7 27 -21 36 -43 14
-9 -9 -19 -6 -42 10 -35 25 -37 33 -16 51 8 7 15 23 15 36 0 13 9 29 20 36 11
7 20 18 20 25 0 7 9 17 19 23 11 5 22 18 26 28 3 11 16 24 29 30 15 7 28 26
37 57 16 55 72 107 83 78 4 -9 -2 -35 -13 -57 -49 -101 -53 -205 -8 -217 34
-9 66 -46 67 -77 0 -30 -22 -37 -60 -18 -32 16 -50 -2 -50 -51 0 -8 -7 -31
-16 -50 -13 -25 -14 -37 -5 -46 17 -17 13 -27 -15 -37 -32 -13 -29 -42 6 -50
34 -8 36 -31 5 -68 -14 -16 -25 -38 -25 -48 1 -27 46 -75 78 -83 31 -9 36 -34
7 -39 -37 -7 -75 -53 -75 -90 0 -25 -8 -41 -30 -60 -41 -36 -44 -102 -6 -102
29 0 109 89 120 133 16 66 50 52 171 -70 27 -28 50 -43 67 -43 32 0 47 -18 55
-64 7 -47 -24 -50 -74 -6 -18 17 -38 30 -43 30 -18 0 -22 -22 -6 -39 9 -9 19
-32 22 -50 l7 -33 -38 4 c-57 4 -54 -13 14 -90 34 -38 61 -75 61 -82 0 -7 7
-21 16 -31 31 -34 9 -55 -27 -25 -59 50 -111 24 -67 -35 36 -48 96 -109 108
-109 5 0 10 -20 10 -43 0 -30 7 -52 20 -67 38 -44 16 -105 -27 -75 -43 30 -45
-17 -3 -70 22 -27 28 -44 24 -61 -7 -26 5 -31 24 -12 9 9 15 9 24 0 19 -19 24
-15 51 41 37 78 44 167 17 223 -12 24 -23 57 -25 72 -1 15 -5 34 -9 42 -7 18
27 78 50 87 31 12 38 -15 40 -145 2 -162 8 -188 45 -207 34 -18 40 -66 12 -97
-11 -12 -18 -37 -18 -64 -1 -50 -9 -62 -29 -45 -23 19 -70 10 -74 -14 -2 -11
-11 -28 -19 -37 -38 -42 -23 -144 15 -106 18 18 15 -3 -8 -56 -12 -25 -25 -46
-30 -46 -13 0 -13 -37 0 -45 5 -3 15 5 22 19 11 25 48 37 48 16 0 -50 249 -48
323 2 144 97 180 122 237 167 108 85 143 115 166 138 12 13 28 23 36 23 16 0
45 29 74 74 17 27 17 29 1 41 -26 19 -64 7 -76 -24 -23 -59 -92 -110 -104 -77
-4 9 0 22 8 29 7 8 17 30 20 50 4 20 13 41 21 48 8 6 14 17 14 23 0 7 9 30 20
51 50 96 107 307 114 418 2 43 10 84 16 92 14 17 -15 124 -36 132 -36 14 -46
-16 -38 -117 8 -126 -12 -192 -30 -96 -4 19 -13 39 -21 46 -8 7 -15 27 -15 46
0 23 -6 37 -20 44 -11 6 -20 19 -20 29 0 10 -9 26 -20 36 -11 10 -20 24 -20
31 0 7 -9 18 -19 24 -11 5 -22 18 -25 28 -3 10 -19 25 -34 34 -16 10 -45 32
-65 50 -20 18 -48 42 -62 53 -25 20 -155 148 -178 175 -94 110 -139 322 -86
400 119 174 303 142 335 -59 4 -27 12 -41 25 -44 36 -10 23 -46 -27 -69 -41
-21 -47 -21 -72 -7 -24 13 -32 27 -49 89 -6 21 -52 -39 -53 -69 0 -40 39 -110
66 -117 13 -3 28 -12 35 -20 26 -31 88 -17 130 28 22 24 39 46 39 50 0 14 23
8 37 -9 13 -17 14 -17 26 0 7 10 19 27 28 37 23 28 25 183 3 241 -21 55 -110
140 -184 176 -77 37 -261 40 -328 5 -23 -12 -49 -22 -56 -22 -16 0 -85 -52
-86 -64 0 -18 -51 -76 -66 -76 -8 0 -37 23 -65 50 -28 27 -56 50 -64 50 -7 0
-18 6 -24 14 -7 8 -28 17 -48 21 -55 10 -132 56 -139 83 -4 15 3 42 20 75 14
29 26 63 26 75 0 13 6 35 14 50 7 15 19 50 25 79 6 28 20 67 31 85 33 54 25
118 -15 118 -41 0 -55 -11 -65 -54 -22 -86 -64 -158 -140 -237 -8 -9 -24 -29
-35 -45 -47 -66 -87 -84 -100 -44 -3 11 -21 32 -39 47 -31 26 -34 34 -38 99
-3 43 -12 81 -22 95 -39 57 -8 161 73 239 56 54 55 93 0 98 -65 5 -169 -83
-257 -219 -103 -157 -69 -478 57 -552 61 -35 30 -83 -52 -80 -52 2 -112 -21
-154 -59 -42 -39 -55 -23 -74 91 -10 57 -25 111 -33 120 -9 10 -16 22 -16 28
0 6 -19 36 -42 66 -50 65 -118 171 -118 184 0 17 -91 103 -110 103 -25 0 -28
-54 -6 -86 8 -11 20 -48 26 -83 6 -35 16 -75 21 -89 19 -48 22 -250 4 -275
-20 -28 -19 -57 2 -87 15 -21 18 -54 21 -202 4 -174 4 -176 -18 -188 -21 -11
-22 -17 -17 -83 7 -77 22 -108 32 -61 3 16 12 51 21 77 8 26 22 89 30 140 8
51 21 114 30 142 13 46 13 51 -4 75 -23 31 -18 54 8 40 40 -21 49 -138 19
-242 -10 -38 -11 -57 -1 -92 8 -30 9 -82 5 -155 -7 -125 -9 -126 -81 -54 -49
49 -60 33 -39 -56 17 -71 14 -245 -5 -257 -4 -3 -8 -16 -8 -29 0 -39 -75 -14
-90 30 -18 54 -97 206 -114 218 -48 36 -23 103 29 79 26 -12 55 5 55 34 0 8 8
14 19 14 38 0 44 96 6 110 -26 10 -32 29 -15 46 14 14 -25 74 -49 74 -11 0
-23 -5 -26 -10 -9 -15 -25 -2 -25 21 0 12 -10 23 -26 29 -43 17 -17 28 53 23
41 -3 72 -11 79 -19 14 -17 47 -19 42 -1 -3 6 -14 16 -26 22 -12 5 -22 14 -22
19 0 5 -8 18 -17 28 -17 19 -16 20 5 37 19 14 24 32 33 111 6 52 20 119 31
147 18 48 19 58 7 105 -12 49 -76 183 -103 218 -7 8 -27 45 -45 82 -17 37 -36
70 -41 73 -6 4 -10 17 -10 30 0 13 -10 43 -23 67 -38 71 -37 70 -53 57 -18
-15 -18 -57 1 -93 17 -32 19 -56 6 -56 -5 0 -11 7 -15 15 -3 8 -10 15 -15 15
-6 0 -25 15 -44 33 -46 44 -90 75 -121 83 -14 3 -26 10 -26 15 0 5 -7 9 -15 9
-8 0 -15 -4 -15 -10 0 -5 -9 -10 -20 -10 -23 0 -27 18 -5 26 8 4 15 15 15 25
0 10 26 47 59 81 94 101 111 124 111 154 1 16 7 40 15 54 8 14 14 38 15 53 0
45 18 70 45 63 30 -8 32 -2 40 161 l7 133 -36 42 c-20 23 -39 54 -42 68 -5 24
-51 120 -63 130 -3 3 -21 23 -40 45 -49 57 -90 85 -125 85 -17 0 -44 7 -60 15
-91 47 -273 -49 -290 -154 -13 -83 34 -161 88 -147 32 8 33 20 1 58 -32 38
-33 35 18 91 39 42 48 47 86 47 23 0 50 4 60 10 49 26 131 -114 130 -220 -2
-160 -31 -214 -216 -407 -46 -47 -83 -89 -83 -92 0 -7 -60 -35 -63 -30 -1 2
-12 19 -25 36 -12 18 -27 43 -32 55 -6 13 -14 30 -19 38 -43 71 -82 200 -97
323 -4 39 -10 50 -30 57 -28 11 -33 30 -5 23 14 -4 24 3 35 26 9 17 21 31 26
31 6 0 10 7 10 15 0 8 -6 15 -14 15 -7 0 -19 -7 -26 -15 -21 -25 -57 -19 -64
11 -8 32 25 126 59 166 14 16 28 46 31 67 6 38 28 67 110 152 42 44 137 90
209 101 25 4 32 40 11 57 -12 10 -27 10 -66 2 -104 -22 -111 -18 -56 38 51 52
53 71 7 71 -21 0 -45 -17 -97 -68z m317 -1090 c-14 -29 -37 -57 -59 -72 -20
-14 -81 -60 -135 -102 -53 -43 -101 -78 -107 -78 -5 0 -14 -9 -20 -19 -5 -11
-20 -21 -32 -23 -13 -2 -23 -9 -23 -17 0 -25 22 -23 50 4 16 14 36 25 46 25
11 0 19 5 19 11 0 5 14 15 30 20 17 6 30 14 30 18 0 11 79 61 96 61 19 0 18
-34 -3 -77 -13 -28 -14 -39 -5 -54 17 -26 15 -59 -3 -65 -8 -4 -15 -12 -15
-18 0 -7 -17 -28 -37 -48 -21 -20 -49 -48 -63 -61 -35 -34 -100 -123 -100
-136 0 -6 -9 -15 -20 -21 -11 -6 -20 -17 -20 -25 0 -19 -15 -26 -35 -19 -39
16 0 100 83 179 44 42 53 65 25 65 -18 0 -110 -94 -119 -122 -3 -10 -9 -18
-14 -18 -5 0 -31 -33 -56 -72 -26 -40 -55 -85 -65 -100 -11 -15 -19 -32 -19
-37 0 -5 -11 -23 -24 -39 -49 -57 -96 -137 -96 -162 0 -14 -7 -36 -15 -50 -8
-14 -19 -35 -24 -47 -13 -29 -29 -37 -46 -23 -21 18 -29 -7 -11 -35 26 -40 21
-82 -14 -100 -41 -21 -43 -20 -74 28 -27 41 -28 45 -22 139 3 57 12 110 21
127 8 17 15 35 15 40 0 17 62 102 109 150 67 68 91 106 91 144 0 49 144 227
184 227 20 0 21 26 1 34 -20 7 -19 36 0 36 9 0 18 8 22 18 3 9 15 24 26 33 19
15 18 16 -21 22 -49 8 -55 22 -46 105 7 67 32 85 44 32 5 -20 14 -26 45 -30
48 -7 65 -16 65 -36 0 -20 32 -18 52 4 9 9 23 22 30 28 7 7 49 49 94 95 124
129 212 161 165 61z m17 -470 c3 -37 0 -43 -22 -52 -14 -5 -26 -13 -26 -18 0
-15 -80 -61 -95 -56 -26 10 -18 70 13 101 84 86 125 94 130 25z m278 -109 c27
-30 44 -58 44 -73 1 -14 8 -43 16 -65 9 -22 20 -76 26 -120 5 -44 16 -87 24
-96 8 -8 14 -24 14 -35 0 -11 8 -35 19 -54 37 -70 52 -254 24 -289 -20 -23
-30 -19 -57 22 -16 27 -19 27 -35 13 -22 -20 -55 -20 -71 -1 -10 12 -11 40 -6
109 6 85 4 94 -14 111 -11 10 -20 27 -20 37 0 11 -8 38 -19 61 -16 36 -17 55
-10 137 8 89 7 98 -16 147 -29 60 -31 90 -9 121 22 32 41 27 90 -25z m-304
-140 c4 -33 21 -34 28 -1 6 25 27 33 49 19 12 -8 12 -14 1 -40 -7 -17 -10 -44
-8 -61 4 -27 2 -30 -20 -30 -39 0 -114 83 -106 115 9 37 52 35 56 -2z m-288
-139 c3 -9 6 -24 6 -35 0 -11 18 -42 40 -70 32 -40 40 -59 40 -91 0 -47 34
-197 56 -249 22 -51 16 -103 -14 -107 -12 -2 -30 -15 -39 -29 -23 -34 -65 -25
-109 25 -19 20 -42 45 -52 55 -22 24 -22 494 0 509 22 13 65 9 72 -8z m-1394
-203 c0 -29 -24 -45 -40 -26 -10 12 -10 18 0 30 17 21 40 19 40 -4z m3670 -98
c-1 -32 2 -105 5 -163 l7 -106 59 -63 c32 -36 59 -74 59 -85 0 -12 9 -34 20
-51 14 -21 20 -47 20 -90 0 -84 7 -105 36 -105 21 0 24 -5 24 -35 0 -18 6 -38
13 -42 7 -4 21 -21 31 -38 10 -16 34 -44 52 -61 38 -36 41 -49 18 -76 -14 -14
-17 -42 -18 -143 -2 -142 -13 -170 -48 -122 -11 15 -25 27 -32 27 -9 0 -13 19
-12 68 0 44 -8 100 -25 162 -15 52 -29 124 -33 160 -6 58 -10 67 -36 82 -40
23 -60 68 -67 149 -3 39 -12 74 -19 80 -8 6 -14 20 -14 32 0 33 -40 87 -81
107 -54 28 -66 53 -67 134 0 54 4 75 19 94 10 14 19 30 19 37 0 7 7 18 15 25
8 7 15 28 15 46 0 28 4 34 20 34 19 0 21 -6 20 -57z m-1720 -46 c0 -18 -4 -39
-9 -46 -13 -20 -26 30 -17 64 9 34 26 22 26 -18z m-956 -97 c-9 -56 -20 -58
-33 -5 -8 34 -8 51 0 66 l11 21 14 -21 c10 -14 12 -33 8 -61z m1706 28 c-1
-29 -35 -61 -49 -45 -10 13 -8 19 10 36 26 24 39 27 39 9z m-755 -75 c17 -62
7 -123 -23 -134 -51 -20 -140 44 -110 78 8 10 20 32 25 48 7 23 16 31 39 33
16 2 33 8 38 13 13 12 19 4 31 -38z m-2083 15 c6 -13 13 -56 14 -96 1 -71 2
-75 41 -115 22 -23 54 -61 71 -84 62 -80 162 -117 199 -73 24 28 65 25 91 -5
15 -17 33 -25 54 -26 85 -2 83 -23 -2 -33 -30 -4 -101 -14 -158 -23 -95 -15
-104 -15 -120 1 -10 9 -25 16 -33 16 -29 1 -120 47 -135 69 -13 17 -22 21 -44
16 -36 -8 -77 33 -86 85 -4 19 -12 66 -19 105 -11 60 -11 75 2 108 28 70 99
101 125 55z m2271 -154 c3 -3 0 -20 -8 -38 -8 -17 -16 -44 -20 -59 -10 -48
-30 -26 -27 29 5 61 30 93 55 68z m-574 -35 c22 -18 23 -23 12 -41 -15 -24 4
-50 59 -78 19 -10 60 -35 90 -54 30 -20 65 -36 78 -36 41 0 132 -95 132 -138
0 -5 6 -15 14 -21 7 -6 16 -25 20 -41 3 -17 12 -30 21 -30 19 0 53 -67 61
-122 7 -50 46 -139 69 -158 8 -7 15 -27 15 -44 0 -38 12 -58 31 -54 9 2 15 -8
17 -29 4 -36 -11 -44 -27 -16 -13 23 -45 -4 -61 -51 -12 -36 -65 -90 -80 -81
-13 8 -13 72 0 80 6 3 10 51 10 108 l-1 102 -34 34 c-19 19 -37 43 -41 53 -8
26 -21 22 -28 -7 -9 -36 -30 -31 -49 13 -11 25 -27 41 -47 49 -35 13 -42 54
-14 84 15 17 14 19 -19 32 -19 8 -38 20 -41 26 -4 6 -17 11 -29 11 -54 1 -136
130 -105 167 8 10 5 13 -16 13 -19 0 -26 5 -26 20 0 11 -5 20 -10 20 -6 0 -15
11 -20 25 -6 15 -17 25 -29 25 -14 0 -21 8 -23 28 -2 19 -9 27 -22 27 -30 0
-31 24 -2 35 18 6 26 17 26 33 0 43 29 49 69 16z m-139 -134 c19 -23 5 -48
-22 -40 -31 10 -52 31 -44 44 10 16 51 13 66 -4z m2250 -58 c0 -24 -31 -77
-45 -77 -8 0 -21 12 -29 28 l-15 27 -1 -27 c0 -27 -23 -58 -42 -58 -19 0 -98
87 -98 108 0 35 56 47 76 17 9 -14 24 -25 34 -25 20 0 60 45 60 67 0 9 11 3
30 -15 17 -17 30 -37 30 -45z m-3904 -8 c32 -28 64 -56 69 -63 6 -6 21 -17 35
-24 14 -7 38 -20 53 -28 25 -14 33 -14 74 0 61 21 67 20 83 -9 18 -34 41 -39
97 -21 26 8 75 20 108 26 33 7 79 16 102 21 64 14 149 11 162 -5 7 -8 27 -17
46 -20 19 -4 38 -13 42 -20 8 -14 112 -66 131 -66 6 0 15 -6 19 -12 13 -21 69
-57 99 -64 16 -4 38 -13 49 -20 11 -8 34 -14 51 -14 39 0 92 -28 100 -52 3
-10 11 -18 17 -18 31 0 67 -68 67 -127 0 -72 9 -90 37 -72 31 19 49 5 78 -55
55 -117 65 -172 47 -281 -13 -76 -16 -263 -6 -315 5 -20 15 -35 30 -40 33 -13
46 -68 42 -185 -3 -95 -4 -100 -25 -103 -16 -2 -23 2 -23 12 0 9 -9 25 -21 37
-13 13 -22 39 -26 72 -4 32 -15 62 -29 79 -30 36 -37 84 -39 273 -1 88 -8 187
-14 220 -7 33 -16 94 -20 135 -8 86 -21 115 -54 124 -13 3 -35 22 -48 41 -13
20 -37 43 -54 51 -16 8 -41 21 -55 29 -14 7 -32 16 -40 19 -8 3 -33 17 -55 31
-22 14 -54 32 -71 39 -17 8 -36 22 -44 30 -7 9 -18 16 -25 16 -7 0 -18 7 -25
15 -14 17 -117 67 -184 90 -76 25 -156 -1 -156 -50 0 -31 17 -35 122 -32 70 2
89 -1 105 -15 11 -10 26 -18 35 -18 8 0 27 -9 41 -20 14 -11 29 -20 34 -20 28
0 114 -85 138 -137 20 -41 50 -86 77 -115 10 -9 20 -30 24 -45 10 -48 13 -53
32 -53 28 0 42 -20 42 -62 0 -30 8 -47 38 -81 36 -39 82 -129 82 -159 0 -8
-12 -30 -26 -49 -34 -45 -27 -181 12 -239 18 -26 24 -48 24 -92 0 -61 22 -114
52 -124 9 -3 20 -14 23 -25 8 -23 21 -25 33 -3 17 30 46 12 56 -36 22 -99 14
-161 -30 -228 -7 -11 -58 37 -74 68 -11 21 -34 50 -52 65 -32 27 -58 80 -58
119 0 47 -46 156 -65 156 -8 0 -15 4 -15 10 0 5 -18 28 -40 52 -22 24 -40 51
-40 60 0 9 -7 43 -15 75 -18 70 -21 179 -3 148 6 -11 19 -28 29 -38 11 -10 19
-26 19 -37 0 -11 9 -24 19 -30 11 -5 21 -20 23 -32 2 -13 10 -23 18 -23 20 0
15 177 -6 215 -8 14 -18 37 -24 52 -9 27 -63 58 -100 58 -16 0 -17 -4 -7 -30
13 -35 3 -50 -20 -28 -13 13 -14 22 -4 48 8 26 8 36 -4 53 -8 12 -15 35 -15
52 0 38 -7 48 -46 68 -33 17 -56 46 -69 87 -11 33 -59 80 -83 80 -13 0 -22 9
-26 25 -5 18 -13 25 -31 25 -35 0 -35 -37 0 -46 69 -17 117 -96 75 -122 -14
-9 -19 -21 -18 -45 4 -48 -24 -42 -34 8 -11 53 -53 112 -85 120 -35 8 -52 -9
-34 -36 14 -23 7 -35 -24 -41 -45 -8 -27 -72 24 -83 73 -16 110 -116 61 -165
-11 -11 -20 -29 -20 -39 0 -23 -4 -26 -46 -35 -28 -6 -37 -2 -68 30 -43 44
-48 90 -15 143 16 27 18 39 10 55 -6 12 -12 41 -13 65 -3 42 -5 45 -37 54 -19
5 -67 34 -106 65 -105 85 -132 96 -210 90 -64 -6 -65 -5 -65 19 0 67 140 100
227 53 21 -11 47 -20 58 -20 11 -1 31 -7 45 -15 14 -8 40 -14 58 -15 77 0 55
101 -25 116 -62 12 -305 -5 -323 -21 -9 -8 -21 -15 -27 -15 -5 0 -18 -9 -28
-20 -10 -11 -26 -20 -35 -20 -10 0 -48 -20 -84 -45 -37 -25 -73 -45 -80 -45
-7 0 -24 -10 -37 -22 -14 -13 -40 -36 -59 -51 -30 -26 -32 -31 -21 -49 11 -17
10 -23 -3 -36 -20 -21 -30 -10 -28 33 1 19 -3 37 -8 40 -24 15 -3 50 88 145
108 114 129 127 210 141 31 5 77 18 102 30 25 12 56 27 70 33 18 9 25 20 25
41 0 28 -3 30 -42 33 -38 3 -43 6 -43 27 0 32 -40 44 -75 21 -30 -20 -105 -21
-131 -1 -10 8 -27 15 -36 15 -19 0 -126 116 -134 145 -6 23 11 75 24 75 5 0
35 -23 68 -51z m4388 -24 c3 -8 12 -15 20 -15 9 0 20 -9 26 -20 6 -11 17 -20
25 -20 8 0 15 -5 15 -12 0 -11 14 -29 53 -66 9 -9 17 -22 17 -29 0 -7 9 -18
20 -25 11 -7 20 -20 20 -28 0 -8 9 -28 20 -45 11 -16 20 -38 20 -47 0 -9 8
-23 18 -30 33 -23 53 -203 23 -203 -8 0 -19 9 -25 20 -41 77 -81 126 -137 170
-44 35 -79 106 -79 162 0 32 -5 55 -15 63 -8 7 -17 28 -21 49 -3 20 -15 43
-27 52 -11 9 -17 21 -13 28 10 16 33 14 40 -4z m-1676 -155 c-3 -48 -6 -55
-25 -58 -15 -2 -23 -10 -23 -22 0 -10 -4 -22 -10 -25 -15 -9 -12 19 5 52 8 15
17 55 21 88 8 81 37 51 32 -35z m-1053 40 c4 -6 1 -18 -6 -26 -14 -17 -4 -33
12 -17 14 14 39 6 39 -13 0 -8 6 -14 14 -14 7 0 16 -9 19 -20 3 -11 13 -20 23
-20 18 0 74 -56 74 -75 0 -6 17 -26 38 -45 39 -36 92 -129 92 -160 0 -10 10
-20 24 -24 19 -5 25 -15 30 -51 9 -55 2 -69 -24 -53 -24 15 -41 1 -19 -15 21
-16 32 -67 21 -98 -11 -28 7 -73 34 -83 15 -6 16 -8 0 -24 -23 -26 -20 -53 10
-97 28 -42 29 -81 3 -142 -11 -27 -11 -41 0 -83 14 -55 5 -80 -29 -80 -26 0
-27 10 -22 146 3 88 1 123 -7 129 -20 12 -23 1 -29 -110 -4 -92 -8 -108 -26
-120 -27 -19 -70 -19 -86 0 -7 8 -27 15 -46 15 -18 0 -39 7 -46 15 -7 9 -21
24 -31 34 -29 30 -20 85 16 89 15 2 27 -1 27 -7 0 -6 13 -11 28 -11 15 0 33
-5 39 -11 14 -14 43 -5 43 14 0 7 -11 24 -25 37 -14 13 -25 28 -25 35 0 6 -9
18 -20 28 -12 10 -18 22 -15 27 11 17 25 11 35 -15 10 -28 35 -25 45 5 3 10
12 21 20 24 17 6 21 101 5 126 -12 20 -20 10 -26 -36 -11 -81 -10 -79 -58 -80
-62 -1 -78 58 -20 72 32 8 32 42 -1 54 -38 14 -28 90 12 90 9 0 25 7 35 17 17
15 18 15 18 -6 0 -33 18 -61 40 -61 25 0 35 17 20 35 -21 25 -48 84 -54 120
-4 19 -16 44 -27 54 -20 18 -35 61 -46 128 -3 18 -11 38 -19 44 -8 6 -14 21
-14 32 0 24 -37 67 -57 67 -7 0 -36 23 -65 50 -28 28 -55 50 -60 50 -15 0 -8
22 15 46 23 25 61 32 72 14z m2310 -115 c38 -37 32 -75 -10 -65 -5 1 -21 3
-35 4 -30 3 -32 8 -24 44 13 51 31 56 69 17z m-1420 -231 c-3 -29 -11 -56 -16
-59 -11 -7 -13 148 -2 159 14 14 25 -46 18 -100z m1960 56 c3 -11 11 -20 16
-20 6 0 9 -12 8 -27 -1 -16 1 -40 5 -55 5 -15 3 -35 -3 -47 -6 -11 -16 -44
-21 -73 -6 -29 -17 -58 -25 -64 -9 -7 -18 -35 -22 -65 -3 -30 -12 -63 -19 -74
-8 -11 -14 -27 -14 -36 0 -25 -64 -71 -79 -56 -18 18 -13 83 9 119 21 35 26
68 10 68 -13 0 -13 37 0 45 6 3 7 17 4 31 -5 18 -2 24 10 24 19 0 33 47 17 63
-12 12 -15 46 -5 71 11 28 24 6 24 -41 0 -39 2 -44 15 -33 11 9 15 35 15 101
0 88 0 89 24 89 16 0 27 -7 31 -20z m-570 -87 c-5 -15 -24 -16 -44 -4 -12 7
-10 14 10 38 l24 30 7 -26 c5 -14 6 -32 3 -38z m-3755 -80 c0 -59 -73 -129
-107 -102 -33 28 -9 73 59 108 37 19 48 18 48 -6z m4444 -74 c-2 -63 -29 -136
-100 -271 -18 -34 -18 -58 1 -58 8 0 15 -9 15 -20 0 -46 -124 -180 -167 -180
-26 0 -32 25 -8 34 8 3 15 14 15 24 0 11 23 43 51 71 48 49 50 53 35 70 -16
17 -15 22 8 72 13 30 27 85 31 124 4 39 13 77 20 85 8 8 17 29 21 45 21 93 80
96 78 4z m-4376 -36 c-3 -5 -10 -23 -17 -40 -13 -32 -51 -47 -65 -24 -15 24
-71 18 -104 -10 -57 -50 -93 -27 -51 31 23 30 25 31 84 25 45 -5 67 -3 90 9
31 16 70 22 63 9z m-432 -158 c3 -8 -1 -29 -10 -47 -12 -22 -15 -45 -10 -74
10 -70 -34 -117 -56 -59 -7 19 -5 36 6 65 13 32 14 43 4 55 -10 12 -7 20 16
44 34 33 43 36 50 16z m652 6 c19 -11 -8 -21 -58 -21 -37 0 -56 10 -43 24 9 9
86 7 101 -3z m-7 -127 c20 -18 74 -41 119 -51 29 -7 120 -63 120 -74 0 -4 9
-10 19 -14 11 -3 23 -15 26 -25 3 -10 15 -22 26 -25 10 -4 19 -15 19 -25 0
-10 5 -22 10 -25 6 -3 10 5 10 19 0 13 -4 26 -9 28 -5 2 -12 22 -16 44 -6 38
-4 43 24 63 83 59 163 -61 162 -244 0 -25 9 -37 55 -69 30 -22 54 -45 54 -53
0 -18 16 -17 24 2 9 24 25 17 40 -17 7 -18 28 -46 45 -62 20 -20 31 -39 31
-58 0 -38 -18 -36 -64 7 -28 25 -42 32 -51 25 -30 -25 -115 12 -134 59 -9 21
-22 32 -43 36 -26 6 -29 10 -25 35 8 36 -8 50 -50 43 -25 -4 -39 -1 -56 14
-12 11 -40 24 -62 28 -22 3 -51 14 -65 23 -21 14 -51 17 -175 16 -168 -1 -205
-10 -205 -49 0 -23 -3 -25 -47 -25 -27 0 -55 -4 -62 -9 -23 -15 -81 52 -81 93
0 43 75 143 136 181 36 23 43 32 38 51 -12 48 41 86 109 81 36 -3 66 -12 78
-23z m-1444 -239 c6 -17 -23 -55 -41 -55 -7 0 -29 -9 -51 -20 -47 -24 -45 -24
-45 -6 0 8 7 16 15 20 8 3 15 12 15 21 0 8 6 15 14 15 8 0 24 9 37 20 29 24
48 25 56 5z m1128 -202 c-3 -21 -8 -54 -9 -74 -4 -51 -10 -57 -64 -65 -26 -3
-52 -11 -59 -16 -7 -5 -34 -15 -60 -23 -26 -7 -56 -16 -65 -20 -28 -11 -36 41
-10 68 13 14 22 39 24 66 3 42 5 44 46 56 23 7 48 18 55 23 11 10 50 16 121
20 27 2 28 1 21 -35z m676 -129 c8 -8 19 -14 24 -14 46 0 115 -87 115 -144 0
-19 5 -38 10 -41 10 -6 14 -65 5 -65 -15 0 -69 48 -81 73 -19 36 -67 65 -122
73 -58 9 -89 49 -54 72 12 8 22 24 22 37 0 39 42 44 81 9z m-504 -69 c22 -9
67 -15 119 -15 65 0 93 -5 121 -20 21 -11 48 -20 60 -20 12 0 28 -6 35 -14 8
-7 29 -21 48 -31 46 -24 19 -45 -55 -45 -126 0 -369 -30 -403 -50 -18 -11 -39
-20 -46 -20 -80 0 -296 -170 -296 -234 0 -35 37 -36 50 -1 5 14 16 25 24 25 8
0 20 8 25 18 16 27 13 8 -4 -24 -35 -68 -2 -133 41 -79 13 16 26 42 29 56 8
34 42 65 81 73 17 4 52 24 78 46 91 75 225 120 234 78 2 -10 -11 -26 -33 -41
-19 -13 -50 -46 -67 -73 -18 -27 -36 -53 -40 -59 -72 -91 -113 -234 -87 -302
6 -15 14 -49 19 -74 12 -60 95 -179 126 -179 6 0 19 -9 29 -20 12 -13 31 -20
57 -20 25 0 41 -5 44 -15 20 -51 179 -83 227 -45 14 11 39 20 56 20 33 0 81
19 81 32 0 4 15 8 33 8 38 0 73 22 63 38 -11 18 -52 14 -94 -7 -86 -43 -323
-43 -365 0 -10 11 -26 19 -36 19 -23 0 -96 78 -129 138 -36 67 -39 254 -4 317
12 21 22 44 22 50 0 15 86 105 129 135 100 70 258 58 371 -26 39 -30 74 -54
77 -54 6 0 105 -48 165 -81 16 -8 33 -19 36 -25 7 -9 57 -42 112 -74 14 -8 72
-19 130 -25 104 -10 105 -10 108 -37 4 -32 -34 -60 -103 -79 -22 -6 -47 -16
-55 -23 -8 -7 -26 -18 -40 -24 -42 -21 -69 -38 -88 -55 -10 -10 -25 -17 -34
-17 -8 0 -27 -9 -41 -20 -14 -11 -30 -20 -35 -20 -6 0 -18 -8 -28 -17 -10 -10
-31 -22 -47 -28 -17 -5 -32 -16 -35 -22 -6 -20 77 -17 84 2 4 8 15 15 25 15
11 0 27 9 36 20 10 11 25 20 35 20 10 0 26 9 35 20 10 11 26 20 36 20 10 0 30
9 44 20 14 11 32 20 40 20 8 0 26 9 40 20 14 11 31 20 38 20 7 0 23 8 36 19
13 10 49 22 79 26 30 4 60 11 66 16 18 15 125 50 185 62 50 9 61 8 101 -11 24
-12 49 -22 54 -22 5 0 25 -8 44 -19 19 -10 63 -21 98 -24 37 -3 71 -12 81 -21
10 -9 28 -16 42 -16 44 -1 82 -45 87 -103 5 -56 18 -73 101 -130 39 -27 82
-99 105 -174 4 -11 13 -27 21 -33 11 -9 15 -34 15 -90 0 -83 -10 -103 -47 -94
-18 5 -22 1 -25 -28 -4 -46 -38 -47 -50 0 -5 18 -17 41 -27 51 -11 11 -32 41
-47 67 -16 27 -43 65 -61 84 -18 19 -35 43 -38 52 -4 9 -15 20 -26 23 -10 4
-23 15 -29 25 -5 10 -22 21 -36 24 -15 4 -39 16 -52 27 -14 10 -31 19 -39 19
-7 0 -25 7 -39 16 -32 21 -211 21 -252 0 -47 -24 -161 -31 -169 -10 -12 32 49
74 106 74 56 0 84 8 75 21 -10 17 -120 10 -165 -11 -59 -26 -159 -26 -159 1 0
17 47 57 82 68 20 7 38 16 40 22 2 5 70 10 152 12 132 2 150 5 162 22 25 34
16 37 -103 30 -161 -8 -199 -14 -213 -30 -7 -8 -24 -15 -38 -15 -13 0 -39 -8
-56 -19 -17 -10 -62 -22 -101 -26 -38 -4 -85 -13 -104 -21 -18 -8 -46 -14 -62
-14 -15 0 -36 -8 -46 -18 -36 -36 -133 -94 -188 -112 -19 -6 -35 -16 -35 -21
0 -5 -13 -9 -29 -9 -33 0 -91 -19 -91 -30 0 -4 -30 -10 -66 -13 -78 -6 -101
-21 -59 -37 33 -13 99 -4 118 14 7 7 36 16 65 20 29 4 59 9 67 12 18 7 22 -50
5 -61 -6 -3 -7 -17 -4 -31 4 -16 2 -24 -7 -24 -7 0 -23 -12 -35 -27 -48 -60
-258 -40 -295 28 -5 11 -15 19 -22 19 -7 0 -34 12 -62 25 -63 31 -147 34 -167
6 -7 -10 -26 -25 -43 -34 -16 -8 -49 -36 -72 -62 -36 -40 -46 -46 -68 -41 -15
4 -34 1 -48 -9 -33 -21 -80 -10 -107 27 l-22 30 20 21 c11 12 22 33 24 46 5
37 30 48 80 32 82 -25 105 -25 113 -2 9 29 1 37 -40 44 -40 6 -147 107 -206
192 -19 28 -37 52 -40 55 -27 24 -54 114 -59 195 -4 73 -8 90 -22 93 -24 5
-30 -25 -31 -144 0 -106 21 -177 71 -236 15 -18 13 -59 -3 -65 -23 -7 -171
145 -199 204 -15 32 -33 67 -39 78 -19 35 -23 265 -4 265 9 0 19 9 22 20 6 20
45 29 45 11 0 -5 -7 -37 -16 -71 -14 -56 -14 -63 0 -86 39 -58 51 -25 51 137
0 112 3 140 16 155 9 11 20 29 23 41 9 29 121 143 171 174 22 13 49 30 60 37
11 7 34 19 50 27 17 9 53 29 80 45 57 33 116 38 172 15z m-1495 -89 c3 -14 2
-30 -2 -37 -12 -18 -30 -1 -30 30 0 47 24 52 32 7z m921 -88 c-1 -14 -18 -49
-38 -77 -21 -31 -40 -72 -45 -102 -5 -28 -17 -60 -25 -72 -8 -12 -15 -32 -15
-45 0 -13 -9 -35 -20 -49 -29 -37 -30 -250 -1 -303 10 -19 22 -50 26 -69 4
-19 23 -57 42 -84 46 -65 60 -106 42 -118 -25 -16 -23 -18 -164 116 -21 20
-34 43 -38 71 -10 58 -46 136 -67 141 -23 6 -39 43 -30 68 5 11 6 29 3 41 -3
13 5 32 21 51 27 33 33 62 15 80 -5 5 -18 25 -27 44 -18 35 -66 57 -98 45 -13
-5 -14 -9 -4 -21 11 -13 10 -18 -3 -28 -8 -7 -17 -21 -19 -32 -6 -34 -23 -16
-21 21 2 29 -1 35 -15 32 -14 -3 -18 -19 -24 -87 -4 -46 -9 -90 -12 -97 -16
-41 42 -245 77 -275 29 -25 41 -24 73 6 l27 25 29 -27 c15 -15 28 -31 28 -36
0 -9 68 -97 84 -108 11 -9 -17 -80 -36 -93 -10 -6 -27 0 -56 18 -23 14 -50 26
-59 26 -68 1 -163 55 -163 93 0 12 -6 31 -14 42 -7 11 -18 49 -24 84 -6 35
-17 70 -24 79 -21 25 -24 295 -4 324 9 12 16 30 16 40 0 23 36 55 89 79 54 24
66 24 83 1 7 -10 28 -26 47 -35 l33 -17 55 58 c30 31 67 72 81 91 37 47 144
131 162 128 9 -2 14 -13 13 -29z m1673 -29 c23 -25 11 -49 -24 -49 -39 0 -55
20 -43 53 11 29 38 28 67 -4z m294 -33 c0 -12 -9 -29 -20 -39 -11 -9 -20 -28
-20 -42 0 -45 -51 -80 -78 -53 -21 21 -13 43 28 86 22 22 40 48 40 56 0 8 6
16 13 19 21 7 37 -4 37 -27z m1280 -118 c0 -11 6 -31 14 -46 7 -15 16 -47 20
-71 4 -24 14 -57 23 -74 13 -27 16 -79 17 -355 l1 -324 -24 -19 c-27 -22 -30
-22 -143 13 -42 12 -68 25 -68 34 0 8 4 14 9 14 10 0 13 5 68 111 35 67 38 92
34 313 -2 99 -31 186 -62 186 -5 0 -15 11 -21 25 -12 27 -48 34 -48 10 0 -8
-9 -24 -21 -36 -17 -17 -19 -28 -14 -64 6 -37 4 -45 -14 -54 -12 -7 -28 -27
-36 -46 -24 -59 -55 -49 -55 19 0 34 -5 58 -14 65 -8 7 -17 25 -21 40 -7 34
-59 86 -78 78 -20 -8 -15 -116 6 -132 11 -7 17 -27 18 -51 2 -61 13 -88 43
-102 32 -16 40 -33 32 -66 -13 -53 -98 -27 -113 33 -3 14 -15 40 -26 59 -15
26 -18 43 -13 81 6 47 5 49 -29 72 -19 13 -35 30 -35 37 0 27 31 72 55 78 31
8 32 20 2 28 -32 8 -85 -9 -112 -34 l-22 -21 -26 43 c-16 27 -25 57 -24 78 2
34 3 35 52 41 28 4 65 14 83 23 32 17 33 16 78 -18 36 -27 59 -37 105 -42 38
-4 64 -13 75 -25 9 -11 27 -19 38 -19 12 0 30 -10 41 -22 18 -21 20 -22 23 -4
2 10 -1 23 -7 29 -27 27 28 93 106 128 23 11 45 25 49 31 9 14 34 -18 34 -44z
m-840 -82 c0 -36 -26 -53 -40 -26 -15 28 -6 50 20 50 14 0 20 -7 20 -24z m18
-86 c3 -9 -2 -11 -17 -7 -17 4 -25 -1 -33 -19 -16 -34 -43 -27 -43 11 0 43 80
56 93 15z m727 -204 c4 -33 3 -61 -4 -73 -9 -15 -10 -11 -11 23 0 23 -3 56 -6
73 -4 19 -2 31 4 31 6 0 14 -24 17 -54z m-3290 -556 c22 -11 59 -20 85 -20 60
0 79 -12 56 -36 -30 -30 31 -48 74 -22 17 11 22 9 35 -10 20 -27 52 -29 60 -2
3 11 14 20 24 20 9 0 36 -9 59 -20 22 -11 51 -20 64 -21 17 0 13 -4 -19 -17
-53 -22 -59 -28 -43 -47 26 -31 -5 -41 -53 -17 -55 27 -74 28 -82 2 -7 -23
-44 -27 -77 -9 -18 10 -20 9 -14 -6 11 -28 -3 -35 -37 -17 -17 9 -33 20 -35
25 -6 13 -40 7 -46 -8 -9 -25 -93 -20 -101 5 -3 11 -3 25 0 30 4 6 -5 22 -20
36 -31 29 -30 100 2 136 20 22 20 22 68 -2z m2403 -188 c33 -35 56 -93 54
-137 -2 -53 20 -90 35 -59 6 10 13 35 17 55 9 49 29 66 62 50 14 -6 46 -11 72
-11 63 0 73 -8 65 -53 -8 -50 -136 -181 -194 -199 -35 -10 -40 -15 -34 -35 4
-17 1 -25 -12 -29 -10 -3 -31 -12 -46 -20 -38 -19 -50 -18 -97 6 -47 24 -46
23 -19 49 l21 19 -22 7 c-12 4 -43 7 -70 7 -53 -1 -66 16 -54 75 3 18 -2 42
-16 68 -36 69 -28 105 35 169 l56 56 64 0 c50 0 69 -4 83 -18z m432 -46 c0 -8
11 -28 25 -44 29 -35 31 -49 8 -74 -24 -26 -33 -22 -33 15 0 39 -8 52 -37 61
-25 8 -31 41 -10 49 24 10 47 7 47 -7z m-2813 -25 c3 -10 19 -23 36 -28 48
-13 44 -47 -6 -51 -32 -3 -38 0 -47 22 -5 14 -14 26 -20 26 -5 0 -10 11 -10
25 0 31 39 36 47 6z m1151 -70 c1 -27 -2 -52 -7 -55 -11 -7 -26 88 -16 104 12
20 21 2 23 -49z m-941 24 c3 -9 18 -22 34 -31 32 -16 38 -44 13 -65 -9 -7 -20
-23 -25 -36 -7 -18 -16 -23 -43 -23 -19 0 -38 -4 -41 -10 -10 -16 -127 -12
-149 5 -11 8 -28 15 -39 15 -28 0 -11 17 25 24 27 5 35 2 53 -20 17 -22 27
-26 48 -20 36 9 34 32 -3 45 -32 11 -41 41 -12 41 26 0 62 28 62 49 0 37 64
59 77 26z m640 -98 c26 -25 28 -38 11 -70 -18 -32 -27 -36 -64 -30 -25 4 -35
1 -40 -11 -13 -34 -74 14 -74 59 0 65 115 100 167 52z m-881 -132 c16 -8 53
-15 82 -15 46 0 53 -3 50 -17 -3 -15 -16 -18 -90 -20 l-86 -2 -4 29 c-7 45 2
49 48 25z m2779 -6 c4 -5 0 -18 -8 -27 -7 -9 -17 -25 -20 -34 -8 -22 -36 -23
-44 -3 -3 10 6 27 23 45 32 32 40 35 49 19z m-155 -34 c-19 -19 -42 -35 -52
-35 -23 0 -23 19 0 27 9 4 23 15 30 25 7 10 23 18 35 18 19 0 18 -3 -13 -35z
m-2362 -53 c2 -8 -10 -12 -37 -12 -29 0 -41 4 -41 14 0 27 69 25 78 -2z"/>
<path d="M3732 4556 c-13 -6 -25 -22 -28 -36 -3 -14 -12 -37 -20 -52 -18 -33
-19 -91 -1 -86 6 3 13 21 15 42 2 21 10 40 18 43 11 4 54 83 54 99 0 6 -13 3
-38 -10z"/>
<path d="M2550 3796 c0 -29 40 -95 58 -96 21 0 14 64 -11 93 -28 34 -47 34
-47 3z"/>
<path d="M4590 3319 c0 -23 22 -49 40 -49 26 0 25 12 -3 38 -26 24 -37 28 -37
11z"/>
<path d="M2488 1413 c-53 -61 38 -202 98 -152 21 17 17 42 -17 109 -32 64 -53
75 -81 43z"/>
<path d="M4530 1075 c-14 -17 -5 -35 17 -35 15 0 42 27 43 43 0 13 -47 7 -60
-8z"/>
<path d="M2660 1018 c0 -27 56 -78 86 -78 12 0 27 -7 34 -15 17 -20 70 -28
104 -15 40 15 21 31 -43 38 -28 2 -51 8 -51 13 0 10 -103 79 -119 79 -6 0 -11
-10 -11 -22z"/>
<path d="M2867 304 c-17 -17 -7 -74 13 -74 14 0 20 7 20 23 0 27 -22 61 -33
51z"/>
<path d="M3411 5542 c-13 -24 12 -62 39 -62 27 0 44 34 30 60 -14 25 -56 26
-69 2z"/>
<path d="M6325 5496 c-19 -14 -19 -15 7 -27 31 -14 61 2 51 27 -7 18 -34 18
-58 0z"/>
<path d="M4864 5456 c-10 -26 5 -66 24 -66 25 0 64 38 60 58 -4 23 -76 30 -84
8z"/>
<path d="M6057 5353 c-12 -11 -8 -41 8 -56 22 -23 85 -2 85 29 0 29 -71 50
-93 27z"/>
<path d="M5964 5210 c-50 -20 -35 -80 19 -80 56 0 73 34 37 70 -22 22 -25 23
-56 10z"/>
<path d="M6217 5113 c-12 -12 -7 -50 8 -63 39 -32 116 18 85 55 -12 15 -81 21
-93 8z"/>
<path d="M4711 5066 c-17 -20 -3 -44 30 -51 36 -8 49 0 49 30 0 34 -56 49 -79
21z"/>
<path d="M4980 5011 c-23 -44 -1 -85 41 -74 25 7 29 24 13 61 -15 36 -38 42
-54 13z"/>
<path d="M2016 4855 c-19 -50 7 -92 40 -64 23 19 15 73 -12 77 -13 2 -24 -4
-28 -13z"/>
<path d="M20796 4094 c-16 -15 -17 -76 -16 -753 1 -405 -1 -749 -5 -765 -9
-32 12 -56 47 -56 17 0 18 33 16 792 -3 818 -3 821 -42 782z"/>
<path d="M14883 3943 c-18 -7 -16 -30 3 -37 28 -11 54 -6 61 10 10 25 -29 42
-64 27z"/>
<path d="M2138 3773 c-11 -55 11 -80 56 -63 46 17 34 74 -16 78 -28 2 -37 -1
-40 -15z"/>
<path d="M14978 3754 c-35 -18 -35 -37 -3 -58 35 -23 70 -20 88 8 28 41 -35
78 -85 50z"/>
<path d="M15108 3636 c-19 -42 -5 -58 49 -54 55 3 65 21 33 56 -28 30 -67 29
-82 -2z"/>
<path d="M14902 3428 c-30 -30 1 -63 48 -53 17 4 34 14 37 22 12 32 -58 58
-85 31z"/>
<path d="M15396 3397 c-30 -22 -16 -52 25 -55 46 -4 65 16 43 46 -17 25 -42
28 -68 9z"/>
<path d="M5681 3370 c-13 -11 -33 -20 -46 -20 -12 0 -28 -7 -35 -15 -7 -8 -18
-15 -25 -15 -17 0 -195 -170 -195 -186 0 -7 -6 -19 -12 -26 -32 -33 -68 -88
-68 -103 0 -62 95 9 133 100 4 11 15 23 23 28 8 4 14 13 14 19 0 20 58 68 120
100 14 7 31 21 38 30 7 10 22 18 32 18 11 0 24 9 30 20 7 14 21 20 43 20 34 0
57 15 57 37 0 21 -81 16 -109 -7z"/>
<path d="M14470 3380 c-8 -5 -32 -15 -52 -20 -101 -28 -185 -142 -148 -200 12
-19 60 -3 75 26 44 86 173 115 278 62 31 -16 77 -98 77 -137 -1 -59 -79 -161
-124 -161 -8 0 -38 -9 -66 -20 -77 -30 -201 -21 -420 31 -152 36 -290 70 -342
85 -25 8 -78 18 -116 24 -38 5 -83 15 -98 21 -17 7 -107 14 -209 17 -254 6
-369 -25 -533 -148 -36 -27 -132 -143 -132 -159 0 -6 -9 -29 -21 -51 -33 -64
-33 -247 0 -313 74 -144 200 -207 364 -183 78 12 172 120 121 140 -29 11 -53
6 -67 -14 -18 -25 -96 -42 -158 -34 -158 21 -225 256 -120 420 27 43 133 134
156 134 7 0 34 10 61 22 72 33 348 33 439 0 32 -12 69 -22 82 -22 12 0 25 -4
28 -10 3 -5 27 -16 53 -24 83 -27 156 -54 187 -70 17 -9 39 -16 50 -16 11 0
29 -6 40 -14 11 -7 36 -17 55 -21 19 -4 62 -15 95 -25 284 -85 513 -53 655 89
58 58 110 146 110 186 0 38 25 51 76 37 106 -28 164 9 164 106 0 37 3 42 28
48 61 15 44 44 -26 44 -25 0 -52 6 -61 14 -46 42 -122 8 -151 -68 -10 -27 -30
-28 -30 -2 0 18 -77 116 -115 148 -52 43 -176 78 -205 58z"/>
<path d="M12360 3070 c-25 -22 -50 -40 -56 -40 -6 0 -22 -8 -35 -18 -28 -22
-150 -52 -207 -52 -43 0 -77 -23 -66 -43 17 -30 39 -47 70 -53 48 -9 71 -40
84 -114 14 -85 31 -553 20 -563 -4 -5 -43 11 -86 34 -76 42 -83 44 -180 47
-104 4 -231 -25 -275 -64 -8 -8 -19 -14 -24 -14 -11 0 -114 -88 -145 -124
-140 -164 -227 -517 -176 -716 8 -30 17 -75 21 -100 4 -25 13 -54 20 -65 7
-11 16 -35 19 -52 4 -17 14 -37 22 -44 8 -6 14 -17 14 -24 0 -29 153 -184 211
-214 53 -27 179 -61 226 -61 125 0 297 100 332 193 6 15 17 27 25 27 14 0 46
-66 46 -95 0 -31 64 -85 127 -106 l62 -20 73 20 c94 26 188 118 188 183 0 36
-1 38 -34 38 -25 0 -38 -6 -50 -25 -36 -55 -106 -29 -133 50 -24 70 -31 1731
-7 1830 23 96 35 186 29 206 -11 34 -64 24 -115 -21z m-266 -972 c73 -61 76
-84 76 -497 0 -436 -13 -500 -121 -601 -148 -138 -361 -43 -436 195 -117 366
-26 821 186 935 77 41 227 25 295 -32z"/>
<path d="M17620 3103 c-8 -2 -29 -11 -47 -19 -17 -8 -39 -14 -50 -14 -10 0
-35 -9 -56 -20 -20 -11 -43 -20 -49 -20 -11 0 -76 -41 -198 -124 -46 -31 -95
-79 -150 -146 -47 -58 -50 -62 -101 -150 -17 -30 -37 -62 -44 -70 -7 -8 -32
-51 -55 -95 -39 -75 -41 -84 -36 -140 3 -33 2 -78 -4 -100 -52 -213 -21 -621
58 -771 6 -11 24 -48 41 -84 100 -208 287 -416 408 -454 12 -4 27 -13 33 -21
7 -8 19 -15 28 -15 8 0 33 -8 56 -19 39 -18 75 -29 174 -52 69 -17 327 -7 392
15 115 39 181 67 225 96 17 11 48 29 70 41 104 56 345 352 345 424 0 6 9 26
19 46 11 20 23 54 27 75 4 22 13 48 20 59 7 11 16 40 19 65 4 25 13 74 22 110
20 86 20 342 -1 420 -8 30 -18 88 -21 128 -4 40 -12 75 -17 78 -5 3 -6 29 -2
60 6 51 5 54 -15 54 -13 0 -25 9 -31 24 -5 13 -14 27 -20 31 -7 4 -19 22 -27
39 -32 68 -46 86 -130 167 -117 113 -178 152 -328 210 -86 34 -354 35 -426 2
-26 -11 -61 -24 -77 -28 -17 -3 -36 -13 -43 -21 -6 -8 -17 -14 -24 -14 -40 0
-121 -95 -110 -130 3 -10 -2 -36 -11 -57 -47 -109 -55 -143 -64 -263 -5 -69
-12 -140 -16 -157 -18 -90 103 -214 252 -257 91 -27 239 13 318 86 11 10 23
18 27 18 14 0 59 105 65 151 5 34 2 55 -10 75 -9 16 -20 41 -26 57 -14 41 -38
33 -61 -20 -26 -60 -42 -79 -93 -104 -23 -11 -52 -26 -66 -35 -37 -22 -109
-13 -152 20 -57 43 -78 105 -78 231 0 58 -5 115 -11 127 -45 84 169 238 330
238 103 0 219 -44 305 -113 23 -19 62 -46 88 -61 26 -15 56 -42 67 -59 11 -18
30 -43 41 -57 30 -37 37 -95 15 -119 -18 -21 -16 -40 26 -216 21 -91 28 -494
9 -570 -6 -22 -17 -71 -24 -110 -8 -38 -19 -86 -26 -105 -37 -105 -66 -178
-79 -200 -127 -218 -258 -318 -441 -339 -107 -12 -252 3 -296 30 -17 10 -37
19 -44 19 -36 0 -192 150 -234 225 -10 17 -28 48 -41 70 -14 22 -29 51 -35 65
-5 14 -14 32 -19 41 -19 33 -59 166 -77 259 -27 136 -28 630 -1 703 9 26 17
65 17 85 0 21 6 46 14 57 7 11 17 36 21 55 4 19 16 46 26 59 11 13 19 31 19
41 0 10 9 29 20 43 11 14 20 28 20 31 0 3 11 22 25 43 14 21 31 46 38 57 22
33 146 149 174 163 16 7 35 17 43 22 58 36 131 54 245 60 l120 6 0 35 0 35
-140 2 c-77 1 -147 -1 -155 -4z"/>
<path d="M19455 3088 c-144 -50 -203 -86 -290 -174 -116 -118 -150 -212 -142
-389 10 -206 109 -359 322 -495 99 -64 107 -69 140 -86 17 -8 48 -26 70 -39
22 -13 51 -30 65 -37 141 -73 380 -264 406 -325 8 -18 19 -33 24 -33 6 0 10
-7 10 -16 0 -9 10 -33 23 -53 33 -53 33 -302 1 -377 -32 -72 -43 -97 -57 -121
-22 -37 -124 -131 -165 -152 -23 -11 -43 -25 -47 -31 -3 -5 -14 -10 -24 -10
-11 0 -38 -9 -62 -20 -64 -29 -304 -29 -368 0 -24 11 -50 20 -58 20 -8 0 -26
9 -40 20 -14 11 -32 20 -39 20 -20 0 -137 121 -166 172 -88 158 -91 397 -5
505 110 139 277 194 399 132 153 -78 129 -329 -30 -329 -63 0 -76 -13 -51 -54
68 -114 262 -112 348 5 39 53 64 174 47 229 -8 25 -17 56 -20 70 -11 50 -109
144 -193 186 l-78 39 -130 0 c-172 0 -257 -32 -369 -140 -317 -304 -186 -802
254 -962 177 -65 354 -80 508 -43 46 11 93 20 105 20 12 0 36 9 52 20 17 11
39 20 51 20 12 0 31 9 44 20 13 11 30 20 38 20 9 0 22 7 31 15 27 26 93 75
101 75 14 0 150 167 150 183 0 9 7 23 16 32 9 9 20 30 24 48 5 18 15 52 24 77
50 149 46 358 -8 443 -8 12 -17 37 -21 55 -4 17 -11 32 -16 32 -5 0 -13 10
-18 23 -15 40 -57 95 -101 134 -24 21 -56 50 -71 64 -15 15 -45 40 -66 55 -21
16 -40 31 -43 34 -11 12 -148 98 -190 120 -25 12 -52 29 -60 35 -8 7 -26 16
-40 20 -14 4 -32 13 -40 20 -8 8 -26 18 -40 24 -26 11 -31 14 -118 69 -281
178 -349 417 -174 613 86 95 136 114 307 114 136 0 144 -1 198 -29 103 -52
187 -163 187 -248 0 -87 -88 -188 -164 -188 -45 0 -102 34 -110 65 -7 26 -43
42 -71 31 -23 -9 -19 -87 7 -133 94 -164 317 -190 450 -51 91 94 131 283 78
363 -11 17 -20 38 -20 47 0 30 -149 171 -210 200 -141 66 -152 68 -335 67
-145 -1 -179 -4 -230 -21z"/>
<path d="M8618 3080 c-76 -10 -156 -25 -178 -34 -22 -9 -49 -16 -60 -16 -34 0
-203 -80 -285 -134 -312 -208 -383 -586 -151 -808 16 -15 34 -28 39 -28 6 0
18 -7 27 -15 25 -23 131 -38 205 -30 110 11 205 109 205 208 0 61 -53 59 -84
-2 -33 -63 -159 -62 -224 2 -72 72 -83 99 -83 214 0 101 0 105 41 186 82 165
231 274 452 332 137 36 413 38 518 5 34 -11 70 -20 79 -20 9 0 27 -9 41 -20
14 -11 30 -20 36 -20 6 0 21 -8 33 -17 11 -10 39 -31 60 -48 35 -27 46 -41 83
-100 7 -11 20 -32 30 -47 10 -15 18 -34 18 -43 0 -9 9 -33 20 -55 44 -86 26
-335 -33 -445 -6 -11 -17 -32 -24 -46 -25 -50 -108 -126 -173 -159 -92 -47
-375 -93 -392 -64 -3 5 -2 185 2 399 8 362 10 394 30 452 40 116 11 178 -56
119 -49 -44 -57 -50 -90 -73 -61 -41 -125 -63 -206 -69 -69 -6 -82 -10 -95
-31 -19 -28 -15 -33 40 -53 32 -12 48 -26 67 -60 l25 -45 0 -715 c0 -688 -1
-717 -20 -774 -22 -66 -51 -92 -112 -102 -56 -9 -66 -17 -65 -54 1 -52 10 -55
124 -40 144 19 274 24 333 11 28 -5 82 -13 122 -16 l72 -7 21 34 20 33 -21 18
c-12 9 -31 17 -44 17 -43 0 -93 29 -117 67 -23 38 -23 42 -30 413 -3 206 -4
379 -1 383 8 12 164 -2 188 -17 11 -7 31 -16 45 -19 47 -11 156 -135 175 -199
4 -12 13 -30 20 -38 8 -8 16 -27 20 -42 4 -15 13 -32 21 -39 8 -6 14 -18 14
-26 0 -8 9 -31 20 -51 11 -20 31 -64 46 -97 14 -33 32 -72 40 -87 8 -14 14
-33 14 -41 0 -8 8 -25 19 -38 10 -13 22 -38 25 -56 4 -17 13 -37 21 -43 8 -6
17 -25 20 -41 4 -16 11 -31 16 -35 5 -3 16 -20 24 -37 66 -142 164 -280 300
-422 144 -150 438 -253 602 -211 33 9 78 16 100 16 21 0 55 9 76 20 20 11 43
20 51 20 56 0 255 145 283 205 7 17 19 38 25 47 16 23 2 37 -43 44 -31 5 -37
2 -64 -35 -36 -49 -152 -131 -185 -131 -13 0 -32 -8 -43 -18 -24 -22 -237 -26
-259 -4 -6 6 -21 12 -32 12 -12 0 -32 7 -46 15 -14 7 -40 21 -57 29 -18 8 -33
19 -33 25 0 5 -9 13 -21 16 -31 10 -118 91 -172 159 -26 34 -53 67 -60 75 -14
18 -80 124 -102 166 -8 17 -35 66 -59 110 -24 44 -56 105 -71 135 -174 355
-218 428 -318 531 -39 40 -122 99 -138 99 -6 0 -19 5 -30 11 -32 17 -7 36 85
64 146 46 288 148 341 244 41 76 75 152 75 169 0 11 7 39 15 62 19 54 19 153
1 211 -8 24 -17 60 -20 80 -4 21 -13 42 -21 49 -8 7 -15 20 -15 30 0 48 -166
216 -265 267 -103 54 -124 63 -141 63 -11 0 -43 9 -72 20 -29 11 -69 20 -90
20 -20 0 -75 7 -122 15 -108 19 -229 18 -402 -5z"/>
<path d="M15499 2936 c-16 -35 0 -91 26 -91 26 0 42 46 29 82 -13 37 -41 41
-55 9z"/>
<path d="M13480 2746 c-116 -59 -171 -76 -241 -76 -78 0 -102 -14 -97 -55 2
-24 9 -31 34 -36 18 -3 44 -17 59 -31 39 -37 47 -171 43 -733 l-3 -460 -28
-57 c-15 -31 -34 -59 -42 -62 -21 -8 -19 -45 3 -53 30 -10 52 -46 52 -85 0
-35 -2 -38 -29 -38 -32 0 -45 -13 -54 -50 -4 -14 -22 -44 -42 -67 -48 -57 -47
-90 5 -132 31 -25 40 -39 40 -64 1 -79 94 -117 138 -57 12 16 22 39 22 52 0
13 15 37 33 54 58 56 66 57 195 39 148 -21 174 -19 186 18 15 41 -2 61 -57 69
-135 19 -147 65 -147 557 0 442 -20 393 157 381 174 -11 260 -60 277 -156 12
-69 36 -114 62 -114 34 0 35 11 38 320 2 299 0 320 -39 320 -33 0 -52 -32 -60
-102 -10 -80 -51 -128 -131 -150 -69 -20 -272 -33 -293 -19 -21 13 -9 586 15
701 25 126 10 139 -96 86z"/>
<path d="M5157 2734 c-24 -25 12 -184 43 -184 24 0 70 48 70 74 0 23 -56 76
-80 76 -6 0 -14 9 -18 20 -4 12 -11 18 -15 14z"/>
<path d="M6197 2683 c-3 -5 -8 -42 -12 -83 -4 -41 -13 -95 -20 -120 -8 -25
-17 -61 -20 -80 -3 -19 -19 -51 -35 -70 l-29 -35 -9 26 c-6 14 -8 69 -5 125 6
104 -8 158 -51 193 -36 30 -50 -46 -21 -116 22 -51 20 -66 -8 -60 -44 12 -47
2 -44 -183 2 -148 -1 -180 -15 -206 -9 -16 -20 -59 -24 -95 -4 -35 -14 -77
-22 -94 -19 -35 -33 -167 -17 -162 5 2 21 23 34 46 31 56 40 44 51 -60 5 -46
14 -124 20 -174 8 -57 10 -133 5 -210 -3 -66 -6 -172 -5 -235 0 -63 -3 -137
-9 -164 -14 -74 -4 -119 24 -112 30 8 39 -4 20 -24 -14 -16 -12 -24 20 -86 26
-51 36 -87 41 -138 9 -105 59 -146 181 -146 96 0 223 63 223 110 0 9 9 25 20
35 15 14 20 31 20 70 0 76 -41 107 -151 113 -98 6 -101 9 -110 130 -4 53 -12
133 -19 177 -14 101 -4 270 21 349 11 32 19 69 19 83 0 13 7 40 15 60 22 52
27 124 17 243 -7 92 -1 184 13 198 2 3 17 5 32 6 l28 1 3 85 c2 64 -1 92 -14
116 -17 32 -17 39 11 132 7 19 4 22 -23 22 -39 0 -46 11 -27 46 20 39 19 56
-5 77 -11 9 -20 29 -20 44 0 41 -15 60 -33 45 -21 -17 -33 2 -40 61 -5 48 -20
77 -30 60z m71 -352 c4 -27 -21 -82 -59 -128 -15 -17 -29 -37 -32 -45 -13 -30
-39 25 -34 74 8 88 115 173 125 99z m-4 -498 c5 -44 2 -75 -14 -128 -12 -38
-25 -119 -31 -179 -10 -123 -12 -128 -40 -100 -28 29 -39 177 -16 224 9 17 19
47 23 66 3 19 10 36 14 39 5 3 11 24 15 48 17 101 40 115 49 30z"/>
<path d="M15672 2638 c4 -27 26 -34 52 -15 25 18 12 37 -25 37 -26 0 -30 -3
-27 -22z"/>
<path d="M15399 2571 c-37 -37 -42 -116 -9 -146 40 -36 102 -32 138 9 40 46
40 63 1 112 -49 62 -85 69 -130 25z"/>
<path d="M5502 2543 c-15 -28 -3 -43 33 -43 44 0 67 26 40 46 -26 19 -62 18
-73 -3z"/>
<path d="M20799 2498 c-4 -10 -5 -105 -1 -115 2 -7 13 -13 23 -13 17 0 19 8
19 65 0 58 -2 65 -20 65 -11 0 -20 -1 -21 -2z"/>
<path d="M7454 2436 c-30 -63 10 -119 69 -97 59 22 46 124 -16 129 -33 3 -38
0 -53 -32z"/>
<path d="M10475 2254 c-22 -8 -51 -19 -65 -23 -89 -29 -270 -169 -270 -210 0
-5 -6 -16 -13 -23 -35 -36 -87 -168 -122 -305 -19 -81 -20 -251 0 -326 8 -32
15 -67 15 -78 0 -43 75 -191 137 -271 71 -90 228 -198 289 -198 10 0 47 -7 83
-16 62 -16 72 -16 161 1 187 36 309 119 417 285 51 78 52 85 12 109 -35 21
-55 18 -64 -8 -7 -23 -93 -115 -128 -136 -220 -138 -476 -46 -600 217 -51 108
-35 148 57 148 66 -1 216 32 281 60 22 9 54 20 72 24 17 4 37 14 44 22 6 8 18
14 27 14 17 0 109 59 158 102 55 49 92 113 114 200 22 83 21 102 -8 192 -15
48 -108 156 -134 156 -6 0 -19 6 -27 14 -65 58 -334 88 -436 50z m216 -107
c46 -16 79 -43 109 -91 35 -58 34 -199 -3 -271 -34 -66 -171 -195 -207 -195
-6 0 -28 -9 -48 -19 -87 -45 -244 -97 -261 -87 -34 21 2 339 50 442 10 23 19
44 19 47 0 14 61 95 96 127 59 53 164 73 245 47z"/>
<path d="M14721 2250 c-24 -11 -49 -20 -57 -20 -7 0 -34 -15 -59 -32 -26 -18
-56 -38 -68 -45 -12 -7 -48 -40 -80 -74 -54 -58 -76 -90 -107 -159 -7 -14 -19
-40 -28 -58 -8 -17 -19 -51 -23 -75 -5 -23 -15 -71 -23 -107 -32 -133 -7 -369
50 -477 7 -16 14 -35 14 -44 0 -9 9 -28 20 -42 11 -14 20 -28 20 -31 0 -16 68
-101 120 -149 141 -131 376 -186 540 -126 142 52 344 316 392 514 5 22 18 49
28 60 108 116 59 464 -93 656 -44 54 -146 149 -162 149 -5 0 -16 6 -24 13 -75
63 -360 92 -460 47z m244 -101 c62 -17 175 -125 175 -166 0 -4 8 -25 19 -47
108 -235 79 -778 -48 -917 -9 -9 -23 -25 -31 -36 -50 -64 -243 -95 -351 -57
-56 21 -124 87 -136 133 -3 14 -15 38 -26 53 -22 30 -23 52 -14 393 13 487
158 714 412 644z"/>
<path d="M14627 1798 c-8 -30 10 -58 37 -58 34 0 49 22 36 54 -13 34 -65 38
-73 4z"/>
<path d="M14768 1673 c-26 -7 -31 -35 -10 -63 26 -35 64 -33 76 3 17 47 -14
75 -66 60z"/>
<path d="M15024 1495 c-8 -21 3 -45 20 -45 20 0 32 40 15 51 -20 13 -29 11
-35 -6z"/>
<path d="M15555 2228 c-37 -22 -6 -88 42 -88 34 0 85 -32 115 -73 28 -37 108
-200 108 -220 0 -7 11 -28 25 -47 14 -19 25 -39 26 -44 0 -6 20 -38 45 -71 24
-33 51 -70 60 -83 37 -51 24 -110 -42 -192 -55 -68 -121 -159 -181 -250 -77
-116 -181 -210 -233 -210 -21 0 -42 -11 -67 -34 l-37 -34 32 -31 c23 -23 37
-31 52 -26 41 13 302 21 352 11 48 -10 51 -9 74 18 29 33 28 37 -41 76 -52 29
-55 34 -55 70 0 20 6 43 14 49 8 7 18 26 21 42 4 16 11 31 16 35 5 3 18 22 29
42 12 20 28 49 38 64 9 14 34 56 55 92 25 43 44 66 56 66 19 0 51 -29 51 -47
0 -6 9 -21 19 -35 11 -13 30 -44 43 -69 13 -24 37 -64 53 -89 63 -98 80 -141
76 -187 -1 -6 -26 -23 -56 -37 -57 -26 -73 -56 -37 -71 9 -4 116 -8 237 -9
121 -2 246 -6 277 -11 55 -7 58 -7 69 19 19 40 0 70 -56 89 -64 22 -139 102
-217 231 -61 102 -112 186 -135 224 -13 20 -27 47 -33 60 -5 12 -32 52 -60 88
-62 80 -62 78 3 156 61 74 66 81 113 176 60 121 197 252 279 268 39 7 69 41
60 67 -7 17 -444 31 -476 16 -14 -7 -35 -67 -26 -76 2 -1 26 -6 53 -9 89 -12
103 -45 53 -129 -16 -27 -34 -61 -40 -75 -6 -14 -17 -32 -24 -40 -8 -8 -34
-53 -58 -100 -51 -100 -71 -110 -87 -48 -16 57 -35 94 -77 145 -82 101 -78
253 6 253 30 0 41 14 41 56 0 16 -6 24 -17 24 -10 0 -132 1 -270 3 -139 2
-259 -1 -268 -5z"/>
<path d="M20700 2224 c-10 -11 -11 -25 -4 -52 9 -36 10 -37 54 -37 50 0 69 27
56 79 -8 31 -83 39 -106 10z"/>
<path d="M1026 2214 c-9 -22 4 -64 19 -64 15 0 28 42 19 64 -3 9 -12 16 -19
16 -7 0 -16 -7 -19 -16z"/>
<path d="M5076 2199 c-3 -8 -6 -23 -8 -33 -2 -13 -15 -23 -36 -28 -35 -9 -35
-28 1 -28 26 1 77 43 77 63 0 22 -29 43 -34 26z"/>
<path d="M6492 2184 c-31 -21 -27 -68 6 -72 43 -6 71 45 40 76 -15 15 -19 15
-46 -4z"/>
<path d="M6657 2143 c-21 -20 1 -73 30 -73 20 0 36 49 22 66 -12 15 -41 19
-52 7z"/>
<path d="M891 2119 c-53 -32 -38 -69 30 -69 33 0 44 17 35 54 -8 33 -28 38
-65 15z"/>
<path d="M20660 2095 c0 -28 25 -44 42 -27 15 15 -1 52 -23 52 -14 0 -19 -7
-19 -25z"/>
<path d="M6877 2103 c-13 -12 -7 -41 9 -47 42 -16 80 6 68 38 -6 16 -64 23
-77 9z"/>
<path d="M20270 2065 c-18 -21 -5 -47 22 -43 26 3 37 36 16 49 -18 12 -24 11
-38 -6z"/>
<path d="M20499 1993 c-55 -37 -63 -70 -24 -108 33 -34 66 -32 95 7 18 25 21
34 11 47 -6 9 -16 26 -22 38 -16 30 -32 34 -60 16z"/>
<path d="M20806 1914 c-3 -8 -6 -37 -6 -63 0 -26 -6 -55 -13 -65 -12 -16 -11
-25 0 -59 11 -32 12 -51 3 -85 -11 -44 -14 -1463 -3 -1584 5 -53 8 -58 29 -58
l24 0 0 954 c0 800 -2 955 -14 965 -11 9 -15 8 -20 -5z"/>
<path d="M4813 1860 c-39 -16 -25 -60 18 -60 26 0 29 3 29 35 0 37 -8 41 -47
25z"/>
<path d="M6650 1820 c-39 -39 -19 -107 40 -139 19 -10 39 -28 45 -39 7 -17 19
-22 48 -22 43 0 60 23 33 43 -11 8 -19 33 -23 72 -7 76 -31 105 -85 105 -25 0
-45 -7 -58 -20z"/>
<path d="M784 1752 c-18 -12 -24 -68 -10 -87 23 -32 61 -16 64 28 4 53 -22 81
-54 59z"/>
<path d="M13051 1736 c-18 -22 23 -63 45 -45 8 7 14 22 12 33 -4 25 -40 33
-57 12z"/>
<path d="M7843 1703 c-18 -7 -16 -78 2 -113 30 -58 81 -62 112 -10 9 17 29 32
44 35 33 8 43 29 23 50 -19 18 -54 4 -54 -23 0 -11 -7 -6 -19 14 -11 17 -34
36 -52 43 -34 12 -37 12 -56 4z"/>
<path d="M646 1669 c-27 -25 -28 -29 -12 -35 13 -5 25 2 42 22 42 52 19 62
-30 13z"/>
<path d="M7580 1691 c-11 -8 -9 -12 14 -21 32 -12 69 -4 63 13 -5 15 -57 20
-77 8z"/>
<path d="M6558 1669 c-26 -15 -23 -47 6 -55 39 -9 61 -1 64 25 6 36 -32 53
-70 30z"/>
<path d="M8264 1655 c-8 -21 2 -45 19 -45 20 0 40 27 33 45 -7 19 -45 20 -52
0z"/>
<path d="M8183 1559 c-39 -18 -56 -45 -58 -95 0 -6 -7 -24 -15 -39 -12 -23
-12 -29 -2 -33 7 -2 25 -15 39 -28 40 -37 139 -35 175 4 53 57 43 146 -22 187
-46 29 -61 30 -117 4z"/>
<path d="M827 1532 c-21 -23 -22 -95 -3 -111 31 -25 89 -9 110 30 l20 36 -25
31 c-28 36 -76 43 -102 14z"/>
<path d="M1227 1446 c-54 -33 -79 -76 -61 -101 8 -10 14 -28 14 -40 0 -57 147
-119 166 -70 3 8 14 17 25 20 11 4 23 22 29 46 32 119 -73 207 -173 145z"/>
<path d="M7946 1268 c-28 -16 -22 -86 9 -94 48 -12 75 3 75 40 0 46 -45 76
-84 54z"/>
<path d="M7565 883 c-38 -90 58 -152 124 -81 58 61 29 118 -59 118 -48 0 -50
-1 -65 -37z"/>
<path d="M18582 827 c-18 -18 -32 -40 -32 -48 0 -8 -13 -28 -30 -44 -46 -44
-40 -128 10 -155 60 -32 150 42 136 111 -4 21 1 43 15 71 l21 40 -28 29 c-36
37 -53 36 -92 -4z"/>
<path d="M12858 718 c-35 -12 -36 -40 -3 -62 32 -21 42 -20 55 4 23 43 -5 74
-52 58z"/>
<path d="M11162 681 c-81 -74 6 -188 92 -120 36 29 36 82 -1 121 -34 35 -51
35 -91 -1z"/>
<path d="M12986 544 c-19 -18 -19 -24 -6 -58 18 -49 90 -25 90 30 0 17 -8 27
-26 34 -34 13 -40 13 -58 -6z"/>
<path d="M12776 504 c-10 -27 -7 -69 8 -89 14 -19 16 -19 50 -2 40 18 44 33
21 77 -18 34 -68 43 -79 14z"/>
<path d="M11342 468 c-25 -25 -6 -68 30 -68 22 0 41 35 33 60 -7 22 -44 27
-63 8z"/>
<path d="M18399 462 c-20 -17 -22 -24 -14 -48 15 -42 75 -42 89 -1 19 54 -29
86 -75 49z"/>
<path d="M18102 428 c-27 -27 -11 -88 23 -88 24 0 35 17 35 54 0 24 -17 46
-35 46 -6 0 -16 -5 -23 -12z"/>
<path d="M18299 349 c-18 -35 -3 -89 26 -89 18 0 25 7 30 28 13 61 -30 108
-56 61z"/>
</g>
</svg>
